<svg xmlns="http://www.w3.org/2000/svg" viewBox="0 0 1080 1080"><defs><style>.cls-1{fill:#0f9399;}.cls-2{fill:#f68c0f;}.cls-3{fill:#db1f3d;}.cls-4{fill:#a06815;}.cls-5{fill:#684b15;}.cls-6{fill:#9b1e36;}.cls-7{fill:#872e5c;}.cls-8{fill:#232323;}</style></defs><g id="Imagotipo"><path class="cls-1" d="M431.31,783.63v21.66a21.53,21.53,0,0,1-21.65-20.82A21.54,21.54,0,0,1,388,805.29c-11.19,0-21.13-8.89-21.44-20.4a21.82,21.82,0,0,1-21.66,20.4v-43.1a21.53,21.53,0,0,1,21.45-21.65h.21A21.47,21.47,0,0,1,388,762a21.66,21.66,0,0,1,43.31.21Z"/><path class="cls-1" d="M487.32,783.63v21.66a21.37,21.37,0,0,1-21.65-21.66A21.64,21.64,0,0,1,444,805.29V762a21.66,21.66,0,0,1,43.31,0Z"/><path class="cls-1" d="M584.51,783.63v21.66a21.54,21.54,0,0,1-21.66-20.82,21.53,21.53,0,0,1-21.65,20.82c-11.19,0-21.13-8.89-21.45-20.4a21.81,21.81,0,0,1-21.65,20.4v-43.1a21.52,21.52,0,0,1,21.44-21.65h.21A21.48,21.48,0,0,1,541.2,762a21.66,21.66,0,0,1,43.31.21Z"/><path class="cls-1" d="M617,783.74a21.63,21.63,0,0,1-21.65,21.65v-43.3A21.57,21.57,0,0,1,617,740.43v43.31Z"/><path class="cls-1" d="M682.74,740.43a21.38,21.38,0,0,1-15.8,20.92v22.39h.11v21.65a21.57,21.57,0,0,1-21.66-21.65v-22.6a21.66,21.66,0,0,1-15.17-20.71h52.52Z"/><path class="cls-1" d="M735.1,783.63v21.66a21.38,21.38,0,0,1-21.66-21.66,21.63,21.63,0,0,1-21.65,21.66V762a21.66,21.66,0,0,1,43.31,0Z"/><path class="cls-1" d="M672.41,821.77a21.39,21.39,0,0,1-15.8,20.92v22.38h.11v21.66a21.56,21.56,0,0,1-21.65-21.66V842.48a21.66,21.66,0,0,1-15.17-20.71h52.51Z"/><path class="cls-1" d="M727.43,865v21.65A21.36,21.36,0,0,1,705.78,865a21.63,21.63,0,0,1-21.65,21.65v-43.3a21.65,21.65,0,0,1,43.3,0Z"/><path class="cls-1" d="M453,865v21.65a21.53,21.53,0,0,1-21.66-20.81,21.52,21.52,0,0,1-21.65,20.81c-11.19,0-21.13-8.89-21.44-20.4a21.82,21.82,0,0,1-21.66,20.4v-43.1A21.52,21.52,0,0,1,388,821.87h.21a21.48,21.48,0,0,1,21.44,21.45,21.66,21.66,0,0,1,43.31.2Z"/><path class="cls-1" d="M512,865v21.65A21.37,21.37,0,0,1,490.32,865a21.63,21.63,0,0,1-21.65,21.65v-43.3a21.66,21.66,0,0,1,43.31,0Z"/><path class="cls-1" d="M570.77,865a21.39,21.39,0,0,1-21.44,21.65H527.68A21.63,21.63,0,0,1,549.33,865a21.55,21.55,0,1,1,0-43.1h21.44a21.51,21.51,0,0,1-21.44,21.65A21.34,21.34,0,0,1,570.77,865Z"/><path class="cls-1" d="M586.47,843.42a21.63,21.63,0,0,1,21.66-21.65v43.16a21.57,21.57,0,0,1-21.66,21.65V843.42Z"/><path class="cls-2" d="M589.38,644.87l-.18,1.84v.1c-16.31.84-33.67,1.31-51.66,1.4-1.84,0-3.71,0-5.55,0-16.52,0-32.58-.44-47.85-1.31l0-.19-.25-1.77c-.06-.38-.09-.78-.15-1.16-2.87-21.57-3-54-.53-99.1v-.28a1.89,1.89,0,0,1,0-.41c0-.37,0-.78.06-1.15l.16-2.62c.06-.78.09-1.56.15-2.34s.1-1.5.16-2.24c.06-1.47.16-2.87.25-4.24.28.34.62.74,1.06,1.18s1,.94,1.56,1.47,1.28,1.09,2,1.68l.85.65c.31.25.62.47.93.69s.63.47,1,.72.68.47,1,.71a104.28,104.28,0,0,0,29.18,14c1.56.44,3.15.88,4.74,1.22A66.31,66.31,0,0,0,541,555.53h.53c1.56,0,3.08-.1,4.64-.25.94-.1,1.91-.22,2.87-.38s2-.31,3-.53c.78-.12,1.56-.31,2.31-.5a7.69,7.69,0,0,0,1-.25c1.65-.4,3.33-.9,5-1.46.91-.31,1.81-.63,2.72-1s1.74-.68,2.62-1.06c1.8-.78,3.55-1.59,5.23-2.46.75-.37,1.53-.78,2.25-1.19.31-.15.62-.34.93-.53.63-.34,1.25-.68,1.84-1.06,1.81-1.06,3.49-2.18,5.08-3.33.53-.38,1.06-.75,1.56-1.15,1-.75,2-1.5,2.87-2.28.56-.47,1.09-.94,1.59-1.43a4.28,4.28,0,0,0,.56-.5,1.93,1.93,0,0,0,.35-.35c.18-.15.37-.34.56-.53l.21-.21c.35-.35.66-.66.94-1a2.17,2.17,0,0,1,.28-.31,25.14,25.14,0,0,0,1.81-2.25,6.82,6.82,0,0,0,.68-1,3.72,3.72,0,0,0,.5-.84c.07,0,.07-.06.07-.09a.75.75,0,0,0,.18-.34,3.69,3.69,0,0,1,.19-.35,5.47,5.47,0,0,0,.22-.53c.06-.18.12-.37.19-.53v0a.09.09,0,0,1,0-.06,1.2,1.2,0,0,0,0,.31C597.05,560.54,593.19,609.52,589.38,644.87Z"/><path class="cls-3" d="M475.49,501.2l-.46-.37-1.32-1.1c-.88-.73-1.8-1.49-2.7-2.26l-.41-.38-.58,0a34.73,34.73,0,0,0-4.66,0,40.8,40.8,0,0,0-15.27,4l-.09,0v.11c2.17,13.69-3.49,25.54-6,30l-2.23,3.89.06.07a45.48,45.48,0,0,1,4.51,7c11.09,21.24,3.35,44.4,3,45.38l-1.28,3.76.07.07c17.65,15.74,24,38.78,24,55.09v.13l1.29.1c1.21.09,2.47.19,3.7.26l3.67.1,2.67,0c.68,0,.7,0,.74-.06l0,0v-.06a.41.41,0,0,0,0-.19l-.25-1.77c0-.18-.05-.37-.07-.57s-.05-.39-.08-.58c-.19-1.12-.28-2.27-.37-3.39,0-.57-.09-1.15-.14-1.73-.09-.86-.19-1.72-.29-2.59-.16-1.5-.34-3.06-.45-4.57-.34-4.49-.59-9.2-.77-14.41s-.26-10.6-.26-16.53.07-12,.22-18.71.4-13.49.73-21c.33-7.74.77-15.63,1.28-23.43.33-5,.71-10.86,1-16.64l.09-1.38c0-.53.06-1,.09-1.52l.63-9.41-.81-.54C481.3,505.64,478.26,503.42,475.49,501.2Z"/><path class="cls-3" d="M633.78,539.74c-.81-1.43-7.83-14.46-5.66-30.21v-.07l0,0c-3.67-3.47-11-9.55-18.9-11.26a23.68,23.68,0,0,0-3.27-.44l-.71,0-.51.44c-1.81,1.64-3.41,3-5.05,4.33a17,17,0,0,1-1.33,1.12c-.44.35-.93.74-1.38,1.12l-.28.22c-2.11,1.66-3.77,2.88-5.38,3.95l-1,.68.31,1.16c.16.57.3,1.18.43,1.78l.07.27c.18.79.36,1.63.54,2.48.78,3.75,1.39,7.71,1.82,11.79a206.26,206.26,0,0,1,.95,21.91c0,4.17,0,8.6-.17,13.56-.11,4.57-.27,9.29-.49,14.42-.19,4.62-.42,9.4-.71,14.61-.25,4.54-.53,9.31-.84,14.16-.27,4.23-.57,8.63-.89,13.06-.27,3.69-.55,7.49-.85,11.29q-.35,4.44-.72,8.88c-.16,1.93-.32,3.87-.49,5.8v.09c-.06.66-.11,1.33-.17,2l0,.17,9.14-.57h.12l0-.11c1.57-9.91,7.46-34.65,28-50.32l.07-.06-.92-3.74c-.07-.24-6.15-24.37,6.59-44.84a46.81,46.81,0,0,1,3.23-4.6l.06-.08Z"/><path class="cls-4" d="M593.19,523.66c.06.66.15,1.34.22,2-.1-.72-.19-1.43-.25-2.12v0c-.19-1.4-.41-2.74-.63-4s-.4-2.28-.59-3.37a.22.22,0,0,0,0-.13c-.19-1.12-.44-2.21-.69-3.27l0,0c-14.37,9.67-29.83,15.43-44.86,16.68q-3.42.29-6.73.28a90.49,90.49,0,0,1-30.4-5.49,117.44,117.44,0,0,1-18.7-8.63c-1.69-.94-3.28-1.9-4.81-2.87l-.18-.12h0l-.25-.16-.38,5.49c0,.5-.06,1-.09,1.53s-.06.9-.09,1.37c-.07,1.18-.16,2.4-.22,3.61a3,3,0,0,0,0,.53c-.07.6-.1,1.22-.13,1.84-.06.78-.12,1.59-.15,2.4s-.1,1.44-.16,2.19v0c.28.34.62.74,1.06,1.18s1,.94,1.56,1.47,1.28,1.09,2,1.68l.85.65c.31.25.62.47.93.69s.63.47,1,.72.68.47,1,.71a104.28,104.28,0,0,0,29.18,14c1.56.44,3.15.85,4.74,1.22A66.31,66.31,0,0,0,541,555.53h.53c1.56,0,3.08-.1,4.64-.25.94-.1,1.91-.22,2.87-.38s2-.31,3-.53c.78-.15,1.53-.31,2.31-.5a7.69,7.69,0,0,0,1-.25c1.65-.4,3.33-.9,5-1.46.91-.31,1.81-.63,2.72-1s1.74-.68,2.62-1.06c1.8-.78,3.55-1.59,5.23-2.46.75-.37,1.53-.78,2.25-1.19.31-.15.62-.34.93-.53.63-.34,1.25-.68,1.84-1.06,1.81-1.06,3.49-2.18,5.08-3.33.53-.38,1.06-.75,1.56-1.15,1-.75,2-1.5,2.87-2.28.56-.47,1.09-.94,1.59-1.43.19-.16.38-.35.56-.5a1.93,1.93,0,0,0,.35-.35c.18-.15.37-.34.56-.53l.21-.21c.35-.35.66-.66.94-1a2.17,2.17,0,0,1,.28-.31,25.14,25.14,0,0,0,1.81-2.25,6.82,6.82,0,0,0,.68-1,3.72,3.72,0,0,0,.5-.84c.07,0,.07-.06.07-.09a.75.75,0,0,0,.18-.34,3.69,3.69,0,0,1,.19-.35,5.47,5.47,0,0,0,.22-.53c.06-.18.12-.37.19-.53v0a.09.09,0,0,1,0-.06C593.53,526.38,593.37,525,593.19,523.66Z"/><path class="cls-5" d="M586.87,504.75a14.21,14.21,0,0,1-6.73,15q-3.71,2.24-7.56,4.2c-3.42,1.75-6.93,3.34-10.5,4.76A113.15,113.15,0,0,1,549.27,533a94.53,94.53,0,0,1-14.54,2.72,78.26,78.26,0,0,1-15.68.13,69.77,69.77,0,0,1-16.64-3.74c-2.79-1-5.54-2.09-8.26-3.23s-5.29-2.09-7.84-3.37l-1.18-.61A55.13,55.13,0,0,1,477.3,520a31.24,31.24,0,0,1-6.6-6.54A15.7,15.7,0,0,1,469.43,496c11.2-21.77,116.74,6.52,116.74,6.52A10.58,10.58,0,0,1,586.87,504.75Z"/><path class="cls-6" d="M475.37,501.31l-.47-.37c-1.34-1.12-2.68-2.22-4-3.37l-.37-.34-.53,0c-.32,0-.73,0-1.1-.05-5.68,12.84,5.77,22.11,15.55,27.38,0,0,0-.06,0-.09.06-1.21.13-2.43.19-3.61,0-.47.06-.91.09-1.37s.07-1,.1-1.53l.37-5.49.25-3.83-.75-.5C481.3,505.83,478.24,503.62,475.37,501.31Z"/><path class="cls-4" d="M639.17,457.17l-.12.06c-.47,1.34-1,2.71-1.62,4.15-3.5,8-8.73,15.86-16.5,24.69-16,18.43-36.6,34.64-60.54,40.93-16.88,4.44-34.72,3.09-51.19-2.78a117.44,117.44,0,0,1-18.7-8.63,128.47,128.47,0,0,1-34-27.52,101.51,101.51,0,0,1-9.21-12.22c-1.28-2-2.48-4.06-3.59-6.16-.71-1.33-3.2-4.8-3-6.29.37-2.87.59-5.8.72-7.85v-.1c.09-1.77.12-3,.12-3,.65-6.17-.81-12.1-.65-18.27a51.24,51.24,0,0,1,3.64-18.83,43.92,43.92,0,0,1,2.34-4.77c.59-1,1.22-2,1.9-3.05,1-1.59,2.15-3.31,3.43-5.08a102,102,0,0,0,6.05-9.51,32.3,32.3,0,0,0,1.65-3.59l.56-1.31.07-.09,0-.13A33.36,33.36,0,0,0,462.44,376c3.33.28,6.89.4,10.57.4,1,0,2,0,3,0a141.19,141.19,0,0,0,30.89-4.18,143.93,143.93,0,0,0,14-4.36c7.48-2.74,15.28-6.58,19.55-13.62l.06-.1s0-.06.06-.09A31.08,31.08,0,0,0,543,357c5.73,6.64,13.84,11,21.94,14.12a158.74,158.74,0,0,0,26.13,7.11A138.63,138.63,0,0,0,616,380.76c2.18,0,4.39-.1,6.58-.1,1.74,0,4.58-.5,5.92.88a9.26,9.26,0,0,1,1.9,3.92c1.12,3.53,2.06,7.08,2.87,10.79l.72,3.65a222.41,222.41,0,0,1,2.93,28.87l.28,6.11c.06,1.34.12,2.68.18,4,.13,2.58.25,5.11.41,7.57a1.63,1.63,0,0,1,0,.38C638,447.1,639.83,453.15,639.17,457.17Z"/><path class="cls-7" d="M425.57,247.7a10.7,10.7,0,0,0,.5,1.63l1.31,3.31c1.15,3,2.37,5.86,3.6,8.79,1.55,3.71,3.09,7.33,4.63,10.92l.56,1.31,1.36-.44c13.77-4.5,27.15-8.66,38.4-12.14,8.84-2.65,17.63-5.19,26.41-7.74l1.33-.39h0c13.86-4,26.37-7.65,39-11.58l1.5-.47-.48-1.49c-1.22-3.84-2.5-7.67-3.79-11.49-.73-2.2-1.47-4.39-2.2-6.6l-3.91-11.7-1.27-3.06a25.44,25.44,0,0,0-4-5.91,23,23,0,0,0-12.61-6.82,28,28,0,0,0-5.66-.56h-.91a31.67,31.67,0,0,0-6.76.89l-17.52,6.12-34,12.48L442.57,216l-4.65,2a12,12,0,0,0-2.17,1.2l-.59.38a14,14,0,0,0-2.33,1.72,21.78,21.78,0,0,0-6.86,10,28.4,28.4,0,0,0-1.24,11.12A30.68,30.68,0,0,0,425.57,247.7Z"/><path class="cls-7" d="M420.78,296.26a34.62,34.62,0,0,0,3,5.37,29.44,29.44,0,0,0,1.89,2.51l1.59,1.91a27.69,27.69,0,0,0,2.15,2.34,11.58,11.58,0,0,0,4.5,2.74,12.69,12.69,0,0,0,3.71.54,17.39,17.39,0,0,0,3.37-.37c.28-.05.54-.1.81-.13a59.43,59.43,0,0,0,7.44-1.86c1-.29,1.88-.56,2.82-.81l13.13-4.12c5.25-1.68,10.68-3.42,15.84-5.39,12.5-4.65,25.13-9.56,37.54-14.59l1.94-.77c5.5-2.19,11.19-4.46,16.71-6.94l18.44-7.93a57.8,57.8,0,0,0,9.28-4.71,7.26,7.26,0,0,0,3.26-5.58c.11-1.06.14-2.11.16-3.16,0-.65,0-1.3.07-2a31.58,31.58,0,0,0-.37-5.28h0a22.47,22.47,0,0,0-.56-2.66,5.15,5.15,0,0,0-1.89-3.06,5.28,5.28,0,0,0-3-.86,13.49,13.49,0,0,0-3.17.49c-1.15.31-2.26.74-3.37,1.16l-1.44.54c-16.35,5.27-33.15,10.14-49.4,14.85-9.2,2.66-18.4,5.33-27.6,8.09-11.37,3.51-24.83,7.69-38.38,12.12l-10,3.22a18.19,18.19,0,0,0-5.81,2.82,9.22,9.22,0,0,0-3.59,5.72,9,9,0,0,0,.25,4A18.7,18.7,0,0,0,420.78,296.26Z"/><path d="M504.06,414.68c.74-.05,1.49-.08,2.25-.08a21,21,0,0,1,6.23.86,14.46,14.46,0,0,0-8.45-3.14c-.64-.06-1.28-.08-1.92-.08a29.31,29.31,0,0,0-7.17,1,29.73,29.73,0,0,0-8.32,3.65,21.62,21.62,0,0,0-6.54,6.16,56.07,56.07,0,0,1,15.64-6.9A42.65,42.65,0,0,1,504.06,414.68Z"/><path d="M584.6,415.07a12.46,12.46,0,0,1,3.27,1,20.2,20.2,0,0,1,3.12,1.64,24.33,24.33,0,0,1,5.5,4.91,13,13,0,0,0-4-6.76,14.38,14.38,0,0,0-7.29-3.71,22.89,22.89,0,0,0-3.76-.31,25.27,25.27,0,0,0-4.18.36,26.6,26.6,0,0,0-7.45,2.24l7.61.09A44.57,44.57,0,0,1,584.6,415.07Z"/><path d="M477.8,394.14a53.17,53.17,0,0,0,5.87,2.52c1,.38,2,.72,3,1a22.54,22.54,0,0,0,3.33.66c.8.08,1.59.12,2.38.12a28.41,28.41,0,0,0,4.24-.33,45.44,45.44,0,0,0,12.29-3.9,54.56,54.56,0,0,0,10.84-6.67c-3.91,1.64-7.82,3.11-11.72,4.5a66.66,66.66,0,0,1-11.86,3.1,26.35,26.35,0,0,1-4.4.39c-.51,0-1,0-1.52-.05h-.2a24.31,24.31,0,0,1-2.68-.37l-3-.74c-2-.51-4-1-6-1.64a21,21,0,0,1-5.75-2.35C473.94,392.14,476,393.08,477.8,394.14Z"/><path d="M576.64,394a25.68,25.68,0,0,0,7.79,4,16.62,16.62,0,0,0,4.49.64,13.34,13.34,0,0,0,4.57-.77,14.3,14.3,0,0,0,7.06-5.08,23.76,23.76,0,0,1-7.65,2.81,15.15,15.15,0,0,1-2.76.25,16.71,16.71,0,0,1-4.82-.73,47.66,47.66,0,0,1-14.39-7.64A20.24,20.24,0,0,0,576.64,394Z"/><path d="M496.59,462.59a18.28,18.28,0,0,0-2,.81,9.16,9.16,0,0,0-2,1.07,20.35,20.35,0,0,0-1.82,1.52c-.48.63-1,1.26-1.4,1.92a14.41,14.41,0,0,0-1.19,8.73,36.63,36.63,0,0,0,6.29,15.24,51.75,51.75,0,0,1-4-15.46,12.86,12.86,0,0,1,1.34-7.11c.37-.43.71-.88,1-1.33s.9-.69,1.34-1.06,1.05-.5,1.56-.78a13,13,0,0,1,1.78-.69,87.61,87.61,0,0,0,15-6.79,97,97,0,0,0,12.2-8.14,16.23,16.23,0,0,0,.28,2.61,4.53,4.53,0,0,0,.49,1.25,3.46,3.46,0,0,0,.59.72,3,3,0,0,0,.91.49,12.38,12.38,0,0,0,2.11.39c1.33.13,2.61.17,3.89.18h.12c2.51,0,5-.12,7.48-.33a74.94,74.94,0,0,0,15-2.63,33.58,33.58,0,0,0,7.14-2.91,12.73,12.73,0,0,0,3.16-2.45,6.72,6.72,0,0,0,1.3-2.08,48.11,48.11,0,0,0,1.88,5.66,33.09,33.09,0,0,0,9.83,14.06c2.28,1.86,5.6,2.83,7.16,4,1.77,1.33,2.19,3.76,1.76,6.29a28.6,28.6,0,0,1-2.7,7.51,65.24,65.24,0,0,1-4.13,7.18c3.88-4,7.5-8.45,9.12-14.21a10.25,10.25,0,0,0,.24-4.63l-.27-1.22-.58-1.13a6.26,6.26,0,0,0-1.59-1.95c-2.85-2.14-5.17-2.53-7.18-4.27-4.09-3.18-7.1-7.78-9.52-12.62A99.19,99.19,0,0,1,566.86,440c-.27-1.16-.57-2.3-.9-3.47a19.15,19.15,0,0,0-3.24-6.78,21.55,21.55,0,0,1,2.5,7,44.53,44.53,0,0,1,.92,7.25c-.17,2.13-2.21,3.69-4.28,4.75a31.68,31.68,0,0,1-6.85,2.36,92.53,92.53,0,0,1-14.58,2.15c-2,.13-4,.21-6,.21h-1.4c-1.21,0-2.43-.1-3.59-.24a10.24,10.24,0,0,1-1.41-.25.13.13,0,0,1-.07-.05,1.92,1.92,0,0,1-.15-.45,26.89,26.89,0,0,1-.12-7c.19-2.44.49-4.9.82-7.36.65-4.92,1.56-9.82,2.33-14.75l2.57-14.75c.18-1.26.45-2.4.57-3.77a13.71,13.71,0,0,0-.42-3.85,24.51,24.51,0,0,0-2.94-6.94c2,4.58,3.34,9.55,1.41,14.27q-1.75,7.29-3.37,14.62c-1.11,4.89-2,9.83-2.75,14.79-.38,2.49-.73,5-1,7.51-.11,1.66-.26,3.27-.22,5-4.42,2.2-8.84,4.31-13.26,6.39A149.71,149.71,0,0,1,496.59,462.59Z"/><path d="M554.92,476.09c-5.44.53-10.94,1-16.38,1.19-1,0-2,0-3,0-4.47,0-9-.24-13.43-.57-5.49-.38-10.95-1-16.39-1.76,3.87,3.5,9.23,6.18,15,8.24a74.67,74.67,0,0,0,18.74,3.82c1.55.11,3.11.17,4.67.17,1.75,0,3.5-.08,5.29-.25a38,38,0,0,0,9.44-2.35,34.42,34.42,0,0,0,13.76-9.6l1.55-1.88-3.12.63C565.81,474.8,560.34,475.51,554.92,476.09Z"/><path d="M528.77,505.68a17.47,17.47,0,0,0,5.46,2.47,23.38,23.38,0,0,0,6,.86,19.72,19.72,0,0,0,6-.94,11.84,11.84,0,0,0,5.09-3.33l-22.54.94Z"/><path d="M501.42,449.49h.39a12.05,12.05,0,0,0,6.07-1.85,20.4,20.4,0,0,0,5-4.47,26.31,26.31,0,0,0,3.5-5.65,20.48,20.48,0,0,0,1.86-6.35c-2.82,3.43-5.14,6.87-7.77,10A34.21,34.21,0,0,1,501.42,449.49Z"/><path d="M572.81,435.53a8.39,8.39,0,0,0,3.57,1.89,6,6,0,0,0,1.4.17,5.62,5.62,0,0,0,2.56-.61,34.83,34.83,0,0,1-3-1.81,28.9,28.9,0,0,1-2.43-2c-1.59-1.4-3-3-5.13-4.66a7.64,7.64,0,0,0,.75,3.82A9.84,9.84,0,0,0,572.81,435.53Z"/><path class="cls-8" d="M413.87,588.65h0a2.25,2.25,0,0,0-.4,0,1.72,1.72,0,0,0-1.63,1.3c-.14.36-12.34,36.53,44.84,59.36l2.14.85.06-2.07C458.89,647.56,459.77,598.44,413.87,588.65Z"/><path class="cls-8" d="M398.46,477.34l-.07-1.39-1.58.09c-.34,0-33.85,2.3-35.39,41.86l-.05,1.33,1.5.09c.08,0,.45,0,1.05,0,3.41,0,14.32-.63,23.09-8.21C395.42,503.87,399.27,492.5,398.46,477.34Z"/><path class="cls-8" d="M432.43,524.71c2-3.57,7.11-14.13,3.59-25.28-2.45-7.74-8.66-14.16-18.45-19.1-1.91,3.14-6.65,12.36-3.89,23C415.83,511.6,422.14,518.79,432.43,524.71Z"/><path class="cls-8" d="M395.06,533l-.44-1.52L393,532c-.67.24-16.54,6-23.49,20.62-4.75,10-4.11,21.55,1.91,34.39l.54,1.15,1.35-.36C373.63,587.75,408.1,578.07,395.06,533Z"/><path class="cls-8" d="M405.45,527.53l-.17,1.72c-.19,1.92-4.25,47.12,29.6,54.92l1.45.34.43-1.27c.15-.43,14.09-42.76-29.44-55.18Z"/><path class="cls-8" d="M394.23,588.19l-1.48,1c-.4.29-39.78,28.9-7.62,70.54l.84,1.09,1.27-.7c.37-.2,36.94-21,7.87-70.49Z"/><path class="cls-8" d="M416.28,646.64l-1.32-.35-.55,1.12c-.38.77-9.16,19.07-.87,35.33,4.66,9.16,13.81,15.76,27.18,19.64l1.24.36.62-1c.46-.75,11.1-18.52,3.48-34.65C441.53,657.49,431.51,650.61,416.28,646.64Z"/><path class="cls-8" d="M686.73,484.56l-1.57-.19-.19,1.39c-2.06,15.07.85,26.65,8.63,34.43,9.55,9.55,22.84,9.71,23.41,9.72h1.5l.06-1.32C720.29,489,687.06,484.6,686.73,484.56Z"/><path class="cls-8" d="M647.17,533.94c12.35-5.68,20.24-13.23,23.45-22.44,4.78-13.69-2.54-25.94-2.85-26.45l-.69-1.13-1.32.52c-11.75,4.65-19.49,11.38-23,20-5.79,14.21,2,28.3,2.29,28.89l.7,1.26Z"/><path class="cls-8" d="M689.05,541.12l-1.59-.69-.57,1.5c-16.72,44.13,16.86,56,17.2,56.11l1.32.44.63-1.1c7.06-12.43,8.66-23.93,4.74-34.18C705.06,548.19,689.71,541.41,689.05,541.12Z"/><path class="cls-8" d="M638,588.91l.32,1.3,1.48-.25c34.4-5.6,34.07-50.94,34-52.87l0-1.73-1.91.41C627.5,545.37,637.93,588.48,638,588.91Z"/><path class="cls-8" d="M680.83,599.57l-1.39-1.14-1,1.43c-33.08,47.47,1.68,70.58,2,70.81l1.21.78.93-1C718.12,631,681.21,599.88,680.83,599.57Z"/><path class="cls-8" d="M660.69,595.77a1.19,1.19,0,0,0-.28,0c-46.58,6.8-49.76,55.85-49.78,56.34l-.11,2.07,2.2-.71c58.95-19.11,49.73-56,49.62-56.33A1.66,1.66,0,0,0,660.69,595.77Z"/><path class="cls-8" d="M654.58,653.2l-1.35.26c-15.52,3-26.08,9.2-31.39,18.48-8.92,15.6.23,34,.62,34.77l.54,1.06,1.26-.28c13.66-3,23.33-9,28.73-17.84,9.61-15.7,2.36-34.51,2-35.3Z"/><path class="cls-8" d="M702,479.83l-.16,1.4-1.59-.12c-.59,0-14.65-1.09-24.09-11.85a31.12,31.12,0,0,1-5.74-9.69,25.37,25.37,0,0,1-.72,2.46c-3.4,9.76-11.78,17.77-24.88,23.79l-1.49.68-.75-1.31c-.31-.59-7.58-13.84-3.37-27.93a.11.11,0,0,0,0-.09c.66-4-1.21-10.07-1.34-10.38a1.63,1.63,0,0,0,0-.38c-.13-2.46-.28-5-.41-7.57-.06-1.28-.12-2.62-.18-4l-.28-6.11A222.41,222.41,0,0,0,634,399.9l-.72-3.65c-.81-3.71-1.75-7.26-2.87-10.79a9.26,9.26,0,0,0-1.9-3.92c-1.34-1.38-4.18-.91-5.92-.88-2.19,0-4.4.1-6.58.1a138.63,138.63,0,0,1-24.91-2.56A158.74,158.74,0,0,1,565,371.09C556.87,368,548.76,363.61,543,357a31.08,31.08,0,0,1-2.5-2.93s0,.06-.06.09l-.06.1c-4.27,7-12.07,10.88-19.55,13.62a143.93,143.93,0,0,1-14,4.36A141.19,141.19,0,0,1,476,376.39c-1,0-2,0-3,0-3.68,0-7.24-.12-10.57-.4a33.36,33.36,0,0,1-1.87,11.84l0,.13-.07.09-.56,1.31a32.3,32.3,0,0,1-1.65,3.59,102,102,0,0,1-6.05,9.51c-1.28,1.77-2.43,3.49-3.43,5.08-.68,1-1.31,2-1.9,3.05a43.92,43.92,0,0,0-2.34,4.77,51.24,51.24,0,0,0-3.64,18.83c-.16,6.17,1.3,12.1.65,18.27,0,0,0,1.19-.12,3v.1c-.13,2.05-.35,5-.72,7.85a.3.3,0,0,0,0,.16c-.07.68-.19,1.37-.28,2.06-.07.34-.13.71-.19,1.09-.16.68-.31,1.37-.47,2.05,0,.1,0,.19-.06.28a46.34,46.34,0,0,1-4.49,11.2c-.16.28-8.14-5.43-8.85-6a46.72,46.72,0,0,1-6.77-6.64,33,33,0,0,1-6.11-10.94,73.3,73.3,0,0,1-2.52-12.47c-.1-.63-.19-1.28-.35-1.94-1.65,8-5.2,14.5-10.6,19.37-9.16,8.19-20.73,9.07-24.31,9.13h-1.13L373,470.7l0-1.44A55.34,55.34,0,0,1,376.89,449a41.37,41.37,0,0,1,3.93-7.33c1.22-1.84,2.77-3.36,3.8-5.33s2.06-4.05,3-6.11c1.84-4.14,3.46-8.38,5-12.62,1.35-3.71,2.62-7.42,3.84-11.13.62-1.94,1.22-3.84,1.81-5.77.47-1.5,1.59-3.65,1.59-5.21l.25-.75c2.62-8.72,5.33-17.7,8.69-26.34a163.49,163.49,0,0,1,26.78-45.23,20.14,20.14,0,0,0,3.56.31,25.2,25.2,0,0,0,4.67-.47l.72-.12a62.89,62.89,0,0,0,8.51-2.12l1.06-.32c.5-.12,1-.28,1.47-.37l.09,0,.13,0,13.37-4.21c5.86-1.9,11.13-3.59,16.24-5.55,11.79-4.37,24.51-9.29,37.76-14.65l4-1.59.28-.1c4.86-2,9.85-4,14.62-6.11L560.3,280a65.37,65.37,0,0,0,7-3.28c23.66,6,44.33,18.83,58.27,36.13.84,1,1.71,2.16,2.55,3.22a83.47,83.47,0,0,0,5.86,7c1.34,1.4,2.84,2.71,4.24,4,.81.78,1.62,1.5,2.4,2.18a115.18,115.18,0,0,1,16.5,19.52,175.39,175.39,0,0,1,13,22.32,178.75,178.75,0,0,1,12,31.83c1.5,5.49,2.71,11,3.68,16.65,1.18,6.76.5,14.12,3.68,20.39,1.56,3.11,4,5.36,6,8.13a36.94,36.94,0,0,1,4.8,9.76A54.16,54.16,0,0,1,702,479.83Z"/></g></svg>