<?xml version="1.0" encoding="UTF-8" standalone="no"?>
<svg
   xmlns:dc="http://purl.org/dc/elements/1.1/"
   xmlns:cc="http://creativecommons.org/ns#"
   xmlns:rdf="http://www.w3.org/1999/02/22-rdf-syntax-ns#"
   xmlns:svg="http://www.w3.org/2000/svg"
   xmlns="http://www.w3.org/2000/svg"
   xmlns:sodipodi="http://sodipodi.sourceforge.net/DTD/sodipodi-0.dtd"
   xmlns:inkscape="http://www.inkscape.org/namespaces/inkscape"
   viewBox="0 0 785.30045 1240.1904"
   version="1.1"
   id="svg97"
   sodipodi:docname="logoMM.svg"
   width="785.30048"
   height="1240.1904"
   inkscape:version="1.0.1 (3bc2e813f5, 2020-09-07)">
  <metadata
     id="metadata101">
    <rdf:RDF>
      <cc:Work
         rdf:about="">
        <dc:format>image/svg+xml</dc:format>
        <dc:type
           rdf:resource="http://purl.org/dc/dcmitype/StillImage" />
        <dc:title></dc:title>
      </cc:Work>
    </rdf:RDF>
  </metadata>
  <sodipodi:namedview
     pagecolor="#ffffff"
     bordercolor="#666666"
     borderopacity="1"
     objecttolerance="10"
     gridtolerance="10"
     guidetolerance="10"
     inkscape:pageopacity="0"
     inkscape:pageshadow="2"
     inkscape:window-width="1920"
     inkscape:window-height="992"
     id="namedview99"
     showgrid="false"
     inkscape:zoom="0.38425926"
     inkscape:cx="131.00805"
     inkscape:cy="644.53633"
     inkscape:window-x="-8"
     inkscape:window-y="-8"
     inkscape:window-maximized="1"
     inkscape:current-layer="svg97"
     fit-margin-left="100"
     fit-margin-top="100"
     fit-margin-right="100"
     fit-margin-bottom="100" />
  <defs
     id="defs4">
    <style
       id="style2">.cls-1{fill:#0f9399;}.cls-2{fill:#f68c0f;}.cls-3{fill:#db1f3d;}.cls-4{fill:#a06815;}.cls-5{fill:#684b15;}.cls-6{fill:#9b1e36;}.cls-7{fill:#872e5c;}.cls-8{fill:#232323;}</style>
  </defs>
  <g
     id="Imagotipo"
     transform="matrix(1.5,0,0,1.5,-417.3495,-189.9048)">
    <path
       class="cls-1"
       d="m 431.31,783.63 v 21.66 A 21.53,21.53 0 0 1 409.66,784.47 21.54,21.54 0 0 1 388,805.29 c -11.19,0 -21.13,-8.89 -21.44,-20.4 a 21.82,21.82 0 0 1 -21.66,20.4 v -43.1 a 21.53,21.53 0 0 1 21.45,-21.65 h 0.21 A 21.47,21.47 0 0 1 388,762 a 21.66,21.66 0 0 1 43.31,0.21 z"
       id="path6" />
    <path
       class="cls-1"
       d="m 487.32,783.63 v 21.66 A 21.37,21.37 0 0 1 465.67,783.63 21.64,21.64 0 0 1 444,805.29 V 762 a 21.66,21.66 0 0 1 43.31,0 z"
       id="path8" />
    <path
       class="cls-1"
       d="m 584.51,783.63 v 21.66 a 21.54,21.54 0 0 1 -21.66,-20.82 21.53,21.53 0 0 1 -21.65,20.82 c -11.19,0 -21.13,-8.89 -21.45,-20.4 a 21.81,21.81 0 0 1 -21.65,20.4 v -43.1 a 21.52,21.52 0 0 1 21.44,-21.65 h 0.21 a 21.48,21.48 0 0 1 21.45,21.46 21.66,21.66 0 0 1 43.31,0.21 z"
       id="path10" />
    <path
       class="cls-1"
       d="m 617,783.74 a 21.63,21.63 0 0 1 -21.65,21.65 v -43.3 A 21.57,21.57 0 0 1 617,740.43 Z"
       id="path12" />
    <path
       class="cls-1"
       d="m 682.74,740.43 a 21.38,21.38 0 0 1 -15.8,20.92 v 22.39 h 0.11 v 21.65 a 21.57,21.57 0 0 1 -21.66,-21.65 v -22.6 a 21.66,21.66 0 0 1 -15.17,-20.71 z"
       id="path14" />
    <path
       class="cls-1"
       d="m 735.1,783.63 v 21.66 a 21.38,21.38 0 0 1 -21.66,-21.66 21.63,21.63 0 0 1 -21.65,21.66 V 762 a 21.66,21.66 0 0 1 43.31,0 z"
       id="path16" />
    <path
       class="cls-1"
       d="m 672.41,821.77 a 21.39,21.39 0 0 1 -15.8,20.92 v 22.38 h 0.11 v 21.66 A 21.56,21.56 0 0 1 635.07,865.07 V 842.48 A 21.66,21.66 0 0 1 619.9,821.77 Z"
       id="path18" />
    <path
       class="cls-1"
       d="m 727.43,865 v 21.65 A 21.36,21.36 0 0 1 705.78,865 21.63,21.63 0 0 1 684.13,886.65 v -43.3 a 21.65,21.65 0 0 1 43.3,0 z"
       id="path20" />
    <path
       class="cls-1"
       d="m 453,865 v 21.65 a 21.53,21.53 0 0 1 -21.66,-20.81 21.52,21.52 0 0 1 -21.65,20.81 c -11.19,0 -21.13,-8.89 -21.44,-20.4 a 21.82,21.82 0 0 1 -21.66,20.4 v -43.1 A 21.52,21.52 0 0 1 388,821.87 h 0.21 a 21.48,21.48 0 0 1 21.44,21.45 21.66,21.66 0 0 1 43.31,0.2 z"
       id="path22" />
    <path
       class="cls-1"
       d="m 512,865 v 21.65 A 21.37,21.37 0 0 1 490.32,865 21.63,21.63 0 0 1 468.67,886.65 v -43.3 a 21.66,21.66 0 0 1 43.31,0 z"
       id="path24" />
    <path
       class="cls-1"
       d="m 570.77,865 a 21.39,21.39 0 0 1 -21.44,21.65 h -21.65 a 21.63,21.63 0 0 1 21.65,-21.65 21.55,21.55 0 1 1 0,-43.1 h 21.44 a 21.51,21.51 0 0 1 -21.44,21.65 21.34,21.34 0 0 1 21.44,21.45 z"
       id="path26" />
    <path
       class="cls-1"
       d="m 586.47,843.42 a 21.63,21.63 0 0 1 21.66,-21.65 v 43.16 a 21.57,21.57 0 0 1 -21.66,21.65 z"
       id="path28" />
    <path
       class="cls-2"
       d="m 589.38,644.87 -0.18,1.84 v 0.1 c -16.31,0.84 -33.67,1.31 -51.66,1.4 -1.84,0 -3.71,0 -5.55,0 -16.52,0 -32.58,-0.44 -47.85,-1.31 v -0.19 l -0.25,-1.77 c -0.06,-0.38 -0.09,-0.78 -0.15,-1.16 -2.87,-21.57 -3,-54 -0.53,-99.1 v -0.28 a 1.89,1.89 0 0 1 0,-0.41 c 0,-0.37 0,-0.78 0.06,-1.15 l 0.16,-2.62 c 0.06,-0.78 0.09,-1.56 0.15,-2.34 0.06,-0.78 0.1,-1.5 0.16,-2.24 0.06,-1.47 0.16,-2.87 0.25,-4.24 0.28,0.34 0.62,0.74 1.06,1.18 0.44,0.44 1,0.94 1.56,1.47 0.56,0.53 1.28,1.09 2,1.68 l 0.85,0.65 c 0.31,0.25 0.62,0.47 0.93,0.69 0.31,0.22 0.63,0.47 1,0.72 0.37,0.25 0.68,0.47 1,0.71 a 104.28,104.28 0 0 0 29.18,14 c 1.56,0.44 3.15,0.88 4.74,1.22 a 66.31,66.31 0 0 0 14.69,1.81 h 0.53 c 1.56,0 3.08,-0.1 4.64,-0.25 0.94,-0.1 1.91,-0.22 2.87,-0.38 0.96,-0.16 2,-0.31 3,-0.53 0.78,-0.12 1.56,-0.31 2.31,-0.5 a 7.69,7.69 0 0 0 1,-0.25 c 1.65,-0.4 3.33,-0.9 5,-1.46 0.91,-0.31 1.81,-0.63 2.72,-1 0.91,-0.37 1.74,-0.68 2.62,-1.06 1.8,-0.78 3.55,-1.59 5.23,-2.46 0.75,-0.37 1.53,-0.78 2.25,-1.19 0.31,-0.15 0.62,-0.34 0.93,-0.53 0.63,-0.34 1.25,-0.68 1.84,-1.06 1.81,-1.06 3.49,-2.18 5.08,-3.33 0.53,-0.38 1.06,-0.75 1.56,-1.15 1,-0.75 2,-1.5 2.87,-2.28 0.56,-0.47 1.09,-0.94 1.59,-1.43 a 4.28,4.28 0 0 0 0.56,-0.5 1.93,1.93 0 0 0 0.35,-0.35 c 0.18,-0.15 0.37,-0.34 0.56,-0.53 l 0.21,-0.21 c 0.35,-0.35 0.66,-0.66 0.94,-1 a 2.17,2.17 0 0 1 0.28,-0.31 25.14,25.14 0 0 0 1.81,-2.25 6.82,6.82 0 0 0 0.68,-1 3.72,3.72 0 0 0 0.5,-0.84 c 0.07,0 0.07,-0.06 0.07,-0.09 a 0.75,0.75 0 0 0 0.18,-0.34 3.69,3.69 0 0 1 0.19,-0.35 5.47,5.47 0 0 0 0.22,-0.53 c 0.06,-0.18 0.12,-0.37 0.19,-0.53 v 0 a 0.09,0.09 0 0 1 0,-0.06 1.2,1.2 0 0 0 0,0.31 c 3.27,32.45 -0.59,81.43 -4.4,116.78 z"
       id="path30" />
    <path
       class="cls-3"
       d="m 475.49,501.2 -0.46,-0.37 -1.32,-1.1 c -0.88,-0.73 -1.8,-1.49 -2.7,-2.26 l -0.41,-0.38 h -0.58 a 34.73,34.73 0 0 0 -4.66,0 40.8,40.8 0 0 0 -15.27,4 H 450 v 0.11 c 2.17,13.69 -3.49,25.54 -6,30 l -2.23,3.89 0.06,0.07 a 45.48,45.48 0 0 1 4.51,7 c 11.09,21.24 3.35,44.4 3,45.38 l -1.28,3.76 0.07,0.07 c 17.65,15.74 24,38.78 24,55.09 v 0.13 l 1.29,0.1 c 1.21,0.09 2.47,0.19 3.7,0.26 l 3.67,0.1 h 2.67 c 0.68,0 0.7,0 0.74,-0.06 v 0 -0.06 a 0.41,0.41 0 0 0 0,-0.19 l -0.25,-1.77 c 0,-0.18 -0.05,-0.37 -0.07,-0.57 -0.02,-0.2 -0.05,-0.39 -0.08,-0.58 -0.19,-1.12 -0.28,-2.27 -0.37,-3.39 0,-0.57 -0.09,-1.15 -0.14,-1.73 -0.09,-0.86 -0.19,-1.72 -0.29,-2.59 -0.16,-1.5 -0.34,-3.06 -0.45,-4.57 -0.34,-4.49 -0.59,-9.2 -0.77,-14.41 -0.18,-5.21 -0.26,-10.6 -0.26,-16.53 0,-5.93 0.07,-12 0.22,-18.71 0.15,-6.71 0.4,-13.49 0.73,-21 0.33,-7.74 0.77,-15.63 1.28,-23.43 0.33,-5 0.71,-10.86 1,-16.64 l 0.09,-1.38 c 0,-0.53 0.06,-1 0.09,-1.52 l 0.63,-9.41 -0.81,-0.54 c -3.45,-2.33 -6.49,-4.55 -9.26,-6.77 z"
       id="path32" />
    <path
       class="cls-3"
       d="m 633.78,539.74 c -0.81,-1.43 -7.83,-14.46 -5.66,-30.21 v -0.07 0 c -3.67,-3.47 -11,-9.55 -18.9,-11.26 a 23.68,23.68 0 0 0 -3.27,-0.44 h -0.71 l -0.51,0.44 c -1.81,1.64 -3.41,3 -5.05,4.33 a 17,17 0 0 1 -1.33,1.12 c -0.44,0.35 -0.93,0.74 -1.38,1.12 l -0.28,0.22 c -2.11,1.66 -3.77,2.88 -5.38,3.95 l -1,0.68 0.31,1.16 c 0.16,0.57 0.3,1.18 0.43,1.78 l 0.07,0.27 c 0.18,0.79 0.36,1.63 0.54,2.48 0.78,3.75 1.39,7.71 1.82,11.79 a 206.26,206.26 0 0 1 0.95,21.91 c 0,4.17 0,8.6 -0.17,13.56 -0.11,4.57 -0.27,9.29 -0.49,14.42 -0.19,4.62 -0.42,9.4 -0.71,14.61 -0.25,4.54 -0.53,9.31 -0.84,14.16 -0.27,4.23 -0.57,8.63 -0.89,13.06 -0.27,3.69 -0.55,7.49 -0.85,11.29 q -0.35,4.44 -0.72,8.88 c -0.16,1.93 -0.32,3.87 -0.49,5.8 v 0.09 c -0.06,0.66 -0.11,1.33 -0.17,2 v 0.17 l 9.14,-0.57 h 0.12 v -0.11 c 1.57,-9.91 7.46,-34.65 28,-50.32 l 0.07,-0.06 -0.92,-3.74 c -0.07,-0.24 -6.15,-24.37 6.59,-44.84 a 46.81,46.81 0 0 1 3.23,-4.6 l 0.06,-0.08 z"
       id="path34" />
    <path
       class="cls-4"
       d="m 593.19,523.66 c 0.06,0.66 0.15,1.34 0.22,2 -0.1,-0.72 -0.19,-1.43 -0.25,-2.12 v 0 c -0.19,-1.4 -0.41,-2.74 -0.63,-4 -0.22,-1.26 -0.4,-2.28 -0.59,-3.37 a 0.22,0.22 0 0 0 0,-0.13 c -0.19,-1.12 -0.44,-2.21 -0.69,-3.27 v 0 c -14.37,9.67 -29.83,15.43 -44.86,16.68 q -3.42,0.29 -6.73,0.28 a 90.49,90.49 0 0 1 -30.4,-5.49 117.44,117.44 0 0 1 -18.7,-8.63 c -1.69,-0.94 -3.28,-1.9 -4.81,-2.87 l -0.18,-0.12 v 0 l -0.25,-0.16 -0.38,5.49 c 0,0.5 -0.06,1 -0.09,1.53 -0.03,0.53 -0.06,0.9 -0.09,1.37 -0.07,1.18 -0.16,2.4 -0.22,3.61 a 3,3 0 0 0 0,0.53 c -0.07,0.6 -0.1,1.22 -0.13,1.84 -0.06,0.78 -0.12,1.59 -0.15,2.4 -0.03,0.81 -0.1,1.44 -0.16,2.19 v 0 c 0.28,0.34 0.62,0.74 1.06,1.18 0.44,0.44 1,0.94 1.56,1.47 0.56,0.53 1.28,1.09 2,1.68 l 0.85,0.65 c 0.31,0.25 0.62,0.47 0.93,0.69 0.31,0.22 0.63,0.47 1,0.72 0.37,0.25 0.68,0.47 1,0.71 a 104.28,104.28 0 0 0 29.18,14 c 1.56,0.44 3.15,0.85 4.74,1.22 a 66.31,66.31 0 0 0 14.58,1.79 h 0.53 c 1.56,0 3.08,-0.1 4.64,-0.25 0.94,-0.1 1.91,-0.22 2.87,-0.38 0.96,-0.16 2,-0.31 3,-0.53 0.78,-0.15 1.53,-0.31 2.31,-0.5 a 7.69,7.69 0 0 0 1,-0.25 c 1.65,-0.4 3.33,-0.9 5,-1.46 0.91,-0.31 1.81,-0.63 2.72,-1 0.91,-0.37 1.74,-0.68 2.62,-1.06 1.8,-0.78 3.55,-1.59 5.23,-2.46 0.75,-0.37 1.53,-0.78 2.25,-1.19 0.31,-0.15 0.62,-0.34 0.93,-0.53 0.63,-0.34 1.25,-0.68 1.84,-1.06 1.81,-1.06 3.49,-2.18 5.08,-3.33 0.53,-0.38 1.06,-0.75 1.56,-1.15 1,-0.75 2,-1.5 2.87,-2.28 0.56,-0.47 1.09,-0.94 1.59,-1.43 0.19,-0.16 0.38,-0.35 0.56,-0.5 a 1.93,1.93 0 0 0 0.35,-0.35 c 0.18,-0.15 0.37,-0.34 0.56,-0.53 l 0.21,-0.21 c 0.35,-0.35 0.66,-0.66 0.94,-1 a 2.17,2.17 0 0 1 0.28,-0.31 25.14,25.14 0 0 0 1.81,-2.25 6.82,6.82 0 0 0 0.68,-1 3.72,3.72 0 0 0 0.5,-0.84 c 0.07,0 0.07,-0.06 0.07,-0.09 a 0.75,0.75 0 0 0 0.18,-0.34 3.69,3.69 0 0 1 0.19,-0.35 5.47,5.47 0 0 0 0.22,-0.53 c 0.06,-0.18 0.12,-0.37 0.19,-0.53 v 0 a 0.09,0.09 0 0 1 0,-0.06 c -0.25,-1.4 -0.41,-2.78 -0.59,-4.12 z"
       id="path36" />
    <path
       class="cls-5"
       d="m 586.87,504.75 a 14.21,14.21 0 0 1 -6.73,15 q -3.71,2.24 -7.56,4.2 c -3.42,1.75 -6.93,3.34 -10.5,4.76 a 113.15,113.15 0 0 1 -12.81,4.29 94.53,94.53 0 0 1 -14.54,2.72 78.26,78.26 0 0 1 -15.68,0.13 69.77,69.77 0 0 1 -16.64,-3.74 c -2.79,-1 -5.54,-2.09 -8.26,-3.23 -2.72,-1.14 -5.29,-2.09 -7.84,-3.37 l -1.18,-0.61 A 55.13,55.13 0 0 1 477.3,520 31.24,31.24 0 0 1 470.7,513.46 15.7,15.7 0 0 1 469.43,496 c 11.2,-21.77 116.74,6.52 116.74,6.52 a 10.58,10.58 0 0 1 0.7,2.23 z"
       id="path38" />
    <path
       class="cls-6"
       d="m 475.37,501.31 -0.47,-0.37 c -1.34,-1.12 -2.68,-2.22 -4,-3.37 l -0.37,-0.34 H 470 c -0.32,0 -0.73,0 -1.1,-0.05 -5.68,12.84 5.77,22.11 15.55,27.38 0,0 0,-0.06 0,-0.09 0.06,-1.21 0.13,-2.43 0.19,-3.61 0,-0.47 0.06,-0.91 0.09,-1.37 0.03,-0.46 0.07,-1 0.1,-1.53 l 0.37,-5.49 0.25,-3.83 -0.75,-0.5 c -3.4,-2.31 -6.46,-4.52 -9.33,-6.83 z"
       id="path40" />
    <path
       class="cls-4"
       d="m 639.17,457.17 -0.12,0.06 c -0.47,1.34 -1,2.71 -1.62,4.15 -3.5,8 -8.73,15.86 -16.5,24.69 -16,18.43 -36.6,34.64 -60.54,40.93 -16.88,4.44 -34.72,3.09 -51.19,-2.78 a 117.44,117.44 0 0 1 -18.7,-8.63 128.47,128.47 0 0 1 -34,-27.52 101.51,101.51 0 0 1 -9.21,-12.22 c -1.28,-2 -2.48,-4.06 -3.59,-6.16 -0.71,-1.33 -3.2,-4.8 -3,-6.29 0.37,-2.87 0.59,-5.8 0.72,-7.85 v -0.1 c 0.09,-1.77 0.12,-3 0.12,-3 0.65,-6.17 -0.81,-12.1 -0.65,-18.27 a 51.24,51.24 0 0 1 3.64,-18.83 43.92,43.92 0 0 1 2.34,-4.77 c 0.59,-1 1.22,-2 1.9,-3.05 1,-1.59 2.15,-3.31 3.43,-5.08 a 102,102 0 0 0 6.05,-9.51 32.3,32.3 0 0 0 1.65,-3.59 l 0.56,-1.31 0.07,-0.09 v -0.13 A 33.36,33.36 0 0 0 462.44,376 c 3.33,0.28 6.89,0.4 10.57,0.4 1,0 2,0 3,0 a 141.19,141.19 0 0 0 30.89,-4.18 143.93,143.93 0 0 0 14,-4.36 c 7.48,-2.74 15.28,-6.58 19.55,-13.62 l 0.06,-0.1 c 0,0 0,-0.06 0.06,-0.09 A 31.08,31.08 0 0 0 543,357 c 5.73,6.64 13.84,11 21.94,14.12 a 158.74,158.74 0 0 0 26.13,7.11 138.63,138.63 0 0 0 24.93,2.53 c 2.18,0 4.39,-0.1 6.58,-0.1 1.74,0 4.58,-0.5 5.92,0.88 a 9.26,9.26 0 0 1 1.9,3.92 c 1.12,3.53 2.06,7.08 2.87,10.79 l 0.72,3.65 a 222.41,222.41 0 0 1 2.93,28.87 l 0.28,6.11 c 0.06,1.34 0.12,2.68 0.18,4 0.13,2.58 0.25,5.11 0.41,7.57 a 1.63,1.63 0 0 1 0,0.38 c 0.21,0.27 2.04,6.32 1.38,10.34 z"
       id="path42" />
    <path
       class="cls-7"
       d="m 425.57,247.7 a 10.7,10.7 0 0 0 0.5,1.63 l 1.31,3.31 c 1.15,3 2.37,5.86 3.6,8.79 1.55,3.71 3.09,7.33 4.63,10.92 l 0.56,1.31 1.36,-0.44 c 13.77,-4.5 27.15,-8.66 38.4,-12.14 8.84,-2.65 17.63,-5.19 26.41,-7.74 l 1.33,-0.39 v 0 c 13.86,-4 26.37,-7.65 39,-11.58 l 1.5,-0.47 -0.48,-1.49 c -1.22,-3.84 -2.5,-7.67 -3.79,-11.49 -0.73,-2.2 -1.47,-4.39 -2.2,-6.6 l -3.91,-11.7 -1.27,-3.06 a 25.44,25.44 0 0 0 -4,-5.91 23,23 0 0 0 -12.61,-6.82 28,28 0 0 0 -5.66,-0.56 h -0.91 a 31.67,31.67 0 0 0 -6.76,0.89 l -17.52,6.12 -34,12.48 -8.49,3.24 -4.65,2 a 12,12 0 0 0 -2.17,1.2 l -0.59,0.38 a 14,14 0 0 0 -2.33,1.72 21.78,21.78 0 0 0 -6.86,10 28.4,28.4 0 0 0 -1.24,11.12 30.68,30.68 0 0 0 0.84,5.28 z"
       id="path44" />
    <path
       class="cls-7"
       d="m 420.78,296.26 a 34.62,34.62 0 0 0 3,5.37 29.44,29.44 0 0 0 1.89,2.51 l 1.59,1.91 a 27.69,27.69 0 0 0 2.15,2.34 11.58,11.58 0 0 0 4.5,2.74 12.69,12.69 0 0 0 3.71,0.54 17.39,17.39 0 0 0 3.37,-0.37 c 0.28,-0.05 0.54,-0.1 0.81,-0.13 a 59.43,59.43 0 0 0 7.44,-1.86 c 1,-0.29 1.88,-0.56 2.82,-0.81 l 13.13,-4.12 c 5.25,-1.68 10.68,-3.42 15.84,-5.39 12.5,-4.65 25.13,-9.56 37.54,-14.59 l 1.94,-0.77 c 5.5,-2.19 11.19,-4.46 16.71,-6.94 l 18.44,-7.93 a 57.8,57.8 0 0 0 9.28,-4.71 7.26,7.26 0 0 0 3.26,-5.58 c 0.11,-1.06 0.14,-2.11 0.16,-3.16 0,-0.65 0,-1.3 0.07,-2 a 31.58,31.58 0 0 0 -0.37,-5.28 v 0 a 22.47,22.47 0 0 0 -0.56,-2.66 5.15,5.15 0 0 0 -1.89,-3.06 5.28,5.28 0 0 0 -3,-0.86 13.49,13.49 0 0 0 -3.17,0.49 c -1.15,0.31 -2.26,0.74 -3.37,1.16 l -1.44,0.54 c -16.35,5.27 -33.15,10.14 -49.4,14.85 -9.2,2.66 -18.4,5.33 -27.6,8.09 -11.37,3.51 -24.83,7.69 -38.38,12.12 l -10,3.22 a 18.19,18.19 0 0 0 -5.81,2.82 9.22,9.22 0 0 0 -3.59,5.72 9,9 0 0 0 0.25,4 18.7,18.7 0 0 0 0.68,1.8 z"
       id="path46" />
    <path
       d="m 504.06,414.68 c 0.74,-0.05 1.49,-0.08 2.25,-0.08 a 21,21 0 0 1 6.23,0.86 14.46,14.46 0 0 0 -8.45,-3.14 c -0.64,-0.06 -1.28,-0.08 -1.92,-0.08 a 29.31,29.31 0 0 0 -7.17,1 29.73,29.73 0 0 0 -8.32,3.65 21.62,21.62 0 0 0 -6.54,6.16 56.07,56.07 0 0 1 15.64,-6.9 42.65,42.65 0 0 1 8.28,-1.47 z"
       id="path48" />
    <path
       d="m 584.6,415.07 a 12.46,12.46 0 0 1 3.27,1 20.2,20.2 0 0 1 3.12,1.64 24.33,24.33 0 0 1 5.5,4.91 13,13 0 0 0 -4,-6.76 14.38,14.38 0 0 0 -7.29,-3.71 22.89,22.89 0 0 0 -3.76,-0.31 25.27,25.27 0 0 0 -4.18,0.36 26.6,26.6 0 0 0 -7.45,2.24 l 7.61,0.09 a 44.57,44.57 0 0 1 7.18,0.54 z"
       id="path50" />
    <path
       d="m 477.8,394.14 a 53.17,53.17 0 0 0 5.87,2.52 c 1,0.38 2,0.72 3,1 a 22.54,22.54 0 0 0 3.33,0.66 c 0.8,0.08 1.59,0.12 2.38,0.12 a 28.41,28.41 0 0 0 4.24,-0.33 45.44,45.44 0 0 0 12.29,-3.9 54.56,54.56 0 0 0 10.84,-6.67 c -3.91,1.64 -7.82,3.11 -11.72,4.5 a 66.66,66.66 0 0 1 -11.86,3.1 26.35,26.35 0 0 1 -4.4,0.39 c -0.51,0 -1,0 -1.52,-0.05 h -0.2 a 24.31,24.31 0 0 1 -2.68,-0.37 l -3,-0.74 c -2,-0.51 -4,-1 -6,-1.64 a 21,21 0 0 1 -5.75,-2.35 c 1.32,1.76 3.38,2.7 5.18,3.76 z"
       id="path52" />
    <path
       d="m 576.64,394 a 25.68,25.68 0 0 0 7.79,4 16.62,16.62 0 0 0 4.49,0.64 13.34,13.34 0 0 0 4.57,-0.77 14.3,14.3 0 0 0 7.06,-5.08 23.76,23.76 0 0 1 -7.65,2.81 15.15,15.15 0 0 1 -2.76,0.25 16.71,16.71 0 0 1 -4.82,-0.73 47.66,47.66 0 0 1 -14.39,-7.64 20.24,20.24 0 0 0 5.71,6.52 z"
       id="path54" />
    <path
       d="m 496.59,462.59 a 18.28,18.28 0 0 0 -2,0.81 9.16,9.16 0 0 0 -2,1.07 20.35,20.35 0 0 0 -1.82,1.52 c -0.48,0.63 -1,1.26 -1.4,1.92 a 14.41,14.41 0 0 0 -1.19,8.73 36.63,36.63 0 0 0 6.29,15.24 51.75,51.75 0 0 1 -4,-15.46 12.86,12.86 0 0 1 1.34,-7.11 c 0.37,-0.43 0.71,-0.88 1,-1.33 0.29,-0.45 0.9,-0.69 1.34,-1.06 0.44,-0.37 1.05,-0.5 1.56,-0.78 a 13,13 0 0 1 1.78,-0.69 87.61,87.61 0 0 0 15,-6.79 97,97 0 0 0 12.2,-8.14 16.23,16.23 0 0 0 0.28,2.61 4.53,4.53 0 0 0 0.49,1.25 3.46,3.46 0 0 0 0.59,0.72 3,3 0 0 0 0.91,0.49 12.38,12.38 0 0 0 2.11,0.39 c 1.33,0.13 2.61,0.17 3.89,0.18 h 0.12 c 2.51,0 5,-0.12 7.48,-0.33 a 74.94,74.94 0 0 0 15,-2.63 33.58,33.58 0 0 0 7.14,-2.91 12.73,12.73 0 0 0 3.16,-2.45 6.72,6.72 0 0 0 1.3,-2.08 48.11,48.11 0 0 0 1.88,5.66 33.09,33.09 0 0 0 9.83,14.06 c 2.28,1.86 5.6,2.83 7.16,4 1.77,1.33 2.19,3.76 1.76,6.29 a 28.6,28.6 0 0 1 -2.7,7.51 65.24,65.24 0 0 1 -4.13,7.18 c 3.88,-4 7.5,-8.45 9.12,-14.21 a 10.25,10.25 0 0 0 0.24,-4.63 l -0.27,-1.22 -0.58,-1.13 a 6.26,6.26 0 0 0 -1.59,-1.95 c -2.85,-2.14 -5.17,-2.53 -7.18,-4.27 -4.09,-3.18 -7.1,-7.78 -9.52,-12.62 A 99.19,99.19 0 0 1 566.86,440 c -0.27,-1.16 -0.57,-2.3 -0.9,-3.47 a 19.15,19.15 0 0 0 -3.24,-6.78 21.55,21.55 0 0 1 2.5,7 44.53,44.53 0 0 1 0.92,7.25 c -0.17,2.13 -2.21,3.69 -4.28,4.75 a 31.68,31.68 0 0 1 -6.85,2.36 92.53,92.53 0 0 1 -14.58,2.15 c -2,0.13 -4,0.21 -6,0.21 h -1.4 c -1.21,0 -2.43,-0.1 -3.59,-0.24 a 10.24,10.24 0 0 1 -1.41,-0.25 0.13,0.13 0 0 1 -0.07,-0.05 1.92,1.92 0 0 1 -0.15,-0.45 26.89,26.89 0 0 1 -0.12,-7 c 0.19,-2.44 0.49,-4.9 0.82,-7.36 0.65,-4.92 1.56,-9.82 2.33,-14.75 l 2.57,-14.75 c 0.18,-1.26 0.45,-2.4 0.57,-3.77 a 13.71,13.71 0 0 0 -0.42,-3.85 24.51,24.51 0 0 0 -2.94,-6.94 c 2,4.58 3.34,9.55 1.41,14.27 q -1.75,7.29 -3.37,14.62 c -1.11,4.89 -2,9.83 -2.75,14.79 -0.38,2.49 -0.73,5 -1,7.51 -0.11,1.66 -0.26,3.27 -0.22,5 -4.42,2.2 -8.84,4.31 -13.26,6.39 a 149.71,149.71 0 0 1 -14.84,5.95 z"
       id="path56" />
    <path
       d="m 554.92,476.09 c -5.44,0.53 -10.94,1 -16.38,1.19 -1,0 -2,0 -3,0 -4.47,0 -9,-0.24 -13.43,-0.57 -5.49,-0.38 -10.95,-1 -16.39,-1.76 3.87,3.5 9.23,6.18 15,8.24 a 74.67,74.67 0 0 0 18.74,3.82 c 1.55,0.11 3.11,0.17 4.67,0.17 1.75,0 3.5,-0.08 5.29,-0.25 a 38,38 0 0 0 9.44,-2.35 34.42,34.42 0 0 0 13.76,-9.6 l 1.55,-1.88 -3.12,0.63 c -5.24,1.07 -10.71,1.78 -16.13,2.36 z"
       id="path58" />
    <path
       d="m 528.77,505.68 a 17.47,17.47 0 0 0 5.46,2.47 23.38,23.38 0 0 0 6,0.86 19.72,19.72 0 0 0 6,-0.94 11.84,11.84 0 0 0 5.09,-3.33 l -22.54,0.94 z"
       id="path60" />
    <path
       d="m 501.42,449.49 h 0.39 a 12.05,12.05 0 0 0 6.07,-1.85 20.4,20.4 0 0 0 5,-4.47 26.31,26.31 0 0 0 3.5,-5.65 20.48,20.48 0 0 0 1.86,-6.35 c -2.82,3.43 -5.14,6.87 -7.77,10 a 34.21,34.21 0 0 1 -9.05,8.32 z"
       id="path62" />
    <path
       d="m 572.81,435.53 a 8.39,8.39 0 0 0 3.57,1.89 6,6 0 0 0 1.4,0.17 5.62,5.62 0 0 0 2.56,-0.61 34.83,34.83 0 0 1 -3,-1.81 28.9,28.9 0 0 1 -2.43,-2 c -1.59,-1.4 -3,-3 -5.13,-4.66 a 7.64,7.64 0 0 0 0.75,3.82 9.84,9.84 0 0 0 2.28,3.2 z"
       id="path64" />
    <path
       class="cls-8"
       d="m 413.87,588.65 v 0 a 2.25,2.25 0 0 0 -0.4,0 1.72,1.72 0 0 0 -1.63,1.3 c -0.14,0.36 -12.34,36.53 44.84,59.36 l 2.14,0.85 0.06,-2.07 c 0.01,-0.53 0.89,-49.65 -45.01,-59.44 z"
       id="path66" />
    <path
       class="cls-8"
       d="m 398.46,477.34 -0.07,-1.39 -1.58,0.09 c -0.34,0 -33.85,2.3 -35.39,41.86 l -0.05,1.33 1.5,0.09 c 0.08,0 0.45,0 1.05,0 3.41,0 14.32,-0.63 23.09,-8.21 8.41,-7.24 12.26,-18.61 11.45,-33.77 z"
       id="path68" />
    <path
       class="cls-8"
       d="m 432.43,524.71 c 2,-3.57 7.11,-14.13 3.59,-25.28 -2.45,-7.74 -8.66,-14.16 -18.45,-19.1 -1.91,3.14 -6.65,12.36 -3.89,23 2.15,8.27 8.46,15.46 18.75,21.38 z"
       id="path70" />
    <path
       class="cls-8"
       d="M 395.06,533 394.62,531.48 393,532 c -0.67,0.24 -16.54,6 -23.49,20.62 -4.75,10 -4.11,21.55 1.91,34.39 l 0.54,1.15 1.35,-0.36 c 0.32,-0.05 34.79,-9.73 21.75,-54.8 z"
       id="path72" />
    <path
       class="cls-8"
       d="m 405.45,527.53 -0.17,1.72 c -0.19,1.92 -4.25,47.12 29.6,54.92 l 1.45,0.34 0.43,-1.27 c 0.15,-0.43 14.09,-42.76 -29.44,-55.18 z"
       id="path74" />
    <path
       class="cls-8"
       d="m 394.23,588.19 -1.48,1 c -0.4,0.29 -39.78,28.9 -7.62,70.54 l 0.84,1.09 1.27,-0.7 c 0.37,-0.2 36.94,-21 7.87,-70.49 z"
       id="path76" />
    <path
       class="cls-8"
       d="m 416.28,646.64 -1.32,-0.35 -0.55,1.12 c -0.38,0.77 -9.16,19.07 -0.87,35.33 4.66,9.16 13.81,15.76 27.18,19.64 l 1.24,0.36 0.62,-1 c 0.46,-0.75 11.1,-18.52 3.48,-34.65 -4.53,-9.6 -14.55,-16.48 -29.78,-20.45 z"
       id="path78" />
    <path
       class="cls-8"
       d="m 686.73,484.56 -1.57,-0.19 -0.19,1.39 c -2.06,15.07 0.85,26.65 8.63,34.43 9.55,9.55 22.84,9.71 23.41,9.72 h 1.5 l 0.06,-1.32 C 720.29,489 687.06,484.6 686.73,484.56 Z"
       id="path80" />
    <path
       class="cls-8"
       d="m 647.17,533.94 c 12.35,-5.68 20.24,-13.23 23.45,-22.44 4.78,-13.69 -2.54,-25.94 -2.85,-26.45 l -0.69,-1.13 -1.32,0.52 c -11.75,4.65 -19.49,11.38 -23,20 -5.79,14.21 2,28.3 2.29,28.89 l 0.7,1.26 z"
       id="path82" />
    <path
       class="cls-8"
       d="m 689.05,541.12 -1.59,-0.69 -0.57,1.5 c -16.72,44.13 16.86,56 17.2,56.11 l 1.32,0.44 0.63,-1.1 c 7.06,-12.43 8.66,-23.93 4.74,-34.18 -5.72,-15.01 -21.07,-21.79 -21.73,-22.08 z"
       id="path84" />
    <path
       class="cls-8"
       d="m 638,588.91 0.32,1.3 1.48,-0.25 c 34.4,-5.6 34.07,-50.94 34,-52.87 v -1.73 l -1.91,0.41 c -44.39,9.6 -33.96,52.71 -33.89,53.14 z"
       id="path86" />
    <path
       class="cls-8"
       d="m 680.83,599.57 -1.39,-1.14 -1,1.43 c -33.08,47.47 1.68,70.58 2,70.81 l 1.21,0.78 0.93,-1 c 35.54,-39.45 -1.37,-70.57 -1.75,-70.88 z"
       id="path88" />
    <path
       class="cls-8"
       d="m 660.69,595.77 a 1.19,1.19 0 0 0 -0.28,0 c -46.58,6.8 -49.76,55.85 -49.78,56.34 l -0.11,2.07 2.2,-0.71 c 58.95,-19.11 49.73,-56 49.62,-56.33 a 1.66,1.66 0 0 0 -1.65,-1.37 z"
       id="path90" />
    <path
       class="cls-8"
       d="m 654.58,653.2 -1.35,0.26 c -15.52,3 -26.08,9.2 -31.39,18.48 -8.92,15.6 0.23,34 0.62,34.77 l 0.54,1.06 1.26,-0.28 c 13.66,-3 23.33,-9 28.73,-17.84 9.61,-15.7 2.36,-34.51 2,-35.3 z"
       id="path92" />
    <path
       class="cls-8"
       d="m 702,479.83 -0.16,1.4 -1.59,-0.12 c -0.59,0 -14.65,-1.09 -24.09,-11.85 a 31.12,31.12 0 0 1 -5.74,-9.69 25.37,25.37 0 0 1 -0.72,2.46 c -3.4,9.76 -11.78,17.77 -24.88,23.79 l -1.49,0.68 -0.75,-1.31 c -0.31,-0.59 -7.58,-13.84 -3.37,-27.93 a 0.11,0.11 0 0 0 0,-0.09 c 0.66,-4 -1.21,-10.07 -1.34,-10.38 a 1.63,1.63 0 0 0 0,-0.38 c -0.13,-2.46 -0.28,-5 -0.41,-7.57 -0.06,-1.28 -0.12,-2.62 -0.18,-4 L 637,428.73 a 222.41,222.41 0 0 0 -3,-28.83 l -0.72,-3.65 c -0.81,-3.71 -1.75,-7.26 -2.87,-10.79 a 9.26,9.26 0 0 0 -1.9,-3.92 c -1.34,-1.38 -4.18,-0.91 -5.92,-0.88 -2.19,0 -4.4,0.1 -6.58,0.1 A 138.63,138.63 0 0 1 591.1,378.2 158.74,158.74 0 0 1 565,371.09 C 556.87,368 548.76,363.61 543,357 a 31.08,31.08 0 0 1 -2.5,-2.93 c 0,0 0,0.06 -0.06,0.09 l -0.06,0.1 c -4.27,7 -12.07,10.88 -19.55,13.62 a 143.93,143.93 0 0 1 -14,4.36 141.19,141.19 0 0 1 -30.83,4.15 c -1,0 -2,0 -3,0 -3.68,0 -7.24,-0.12 -10.57,-0.4 a 33.36,33.36 0 0 1 -1.87,11.84 v 0.13 l -0.07,0.09 -0.56,1.31 a 32.3,32.3 0 0 1 -1.65,3.59 102,102 0 0 1 -6.05,9.51 c -1.28,1.77 -2.43,3.49 -3.43,5.08 -0.68,1 -1.31,2 -1.9,3.05 a 43.92,43.92 0 0 0 -2.34,4.77 51.24,51.24 0 0 0 -3.64,18.83 c -0.16,6.17 1.3,12.1 0.65,18.27 0,0 0,1.19 -0.12,3 v 0.1 c -0.13,2.05 -0.35,5 -0.72,7.85 a 0.3,0.3 0 0 0 0,0.16 c -0.07,0.68 -0.19,1.37 -0.28,2.06 -0.07,0.34 -0.13,0.71 -0.19,1.09 -0.16,0.68 -0.31,1.37 -0.47,2.05 0,0.1 0,0.19 -0.06,0.28 a 46.34,46.34 0 0 1 -4.49,11.2 c -0.16,0.28 -8.14,-5.43 -8.85,-6 a 46.72,46.72 0 0 1 -6.77,-6.64 33,33 0 0 1 -6.11,-10.94 73.3,73.3 0 0 1 -2.52,-12.47 c -0.1,-0.63 -0.19,-1.28 -0.35,-1.94 -1.65,8 -5.2,14.5 -10.6,19.37 -9.16,8.19 -20.73,9.07 -24.31,9.13 H 374.6 L 373,470.7 v -1.44 a 55.34,55.34 0 0 1 3.89,-20.26 41.37,41.37 0 0 1 3.93,-7.33 c 1.22,-1.84 2.77,-3.36 3.8,-5.33 1.03,-1.97 2.06,-4.05 3,-6.11 1.84,-4.14 3.46,-8.38 5,-12.62 1.35,-3.71 2.62,-7.42 3.84,-11.13 0.62,-1.94 1.22,-3.84 1.81,-5.77 0.47,-1.5 1.59,-3.65 1.59,-5.21 l 0.25,-0.75 c 2.62,-8.72 5.33,-17.7 8.69,-26.34 a 163.49,163.49 0 0 1 26.78,-45.23 20.14,20.14 0 0 0 3.56,0.31 25.2,25.2 0 0 0 4.67,-0.47 l 0.72,-0.12 a 62.89,62.89 0 0 0 8.51,-2.12 l 1.06,-0.32 c 0.5,-0.12 1,-0.28 1.47,-0.37 h 0.09 0.13 l 13.37,-4.21 c 5.86,-1.9 11.13,-3.59 16.24,-5.55 11.79,-4.37 24.51,-9.29 37.76,-14.65 l 4,-1.59 0.28,-0.1 c 4.86,-2 9.85,-4 14.62,-6.11 L 560.3,280 a 65.37,65.37 0 0 0 7,-3.28 c 23.66,6 44.33,18.83 58.27,36.13 0.84,1 1.71,2.16 2.55,3.22 a 83.47,83.47 0 0 0 5.86,7 c 1.34,1.4 2.84,2.71 4.24,4 0.81,0.78 1.62,1.5 2.4,2.18 a 115.18,115.18 0 0 1 16.5,19.52 175.39,175.39 0 0 1 13,22.32 178.75,178.75 0 0 1 12,31.83 c 1.5,5.49 2.71,11 3.68,16.65 1.18,6.76 0.5,14.12 3.68,20.39 1.56,3.11 4,5.36 6,8.13 a 36.94,36.94 0 0 1 4.8,9.76 54.16,54.16 0 0 1 1.72,21.98 z"
       id="path94" />
  </g>
</svg>
